<svg width="57" height="57" viewBox="0 0 57 57" fill="none" xmlns="http://www.w3.org/2000/svg">
<path d="M0.692391 12.1529C1.15788 6.08435 5.92727 1.21866 11.9917 0.702358C23.2632 -0.257248 32.3554 -0.219695 43.9085 0.730146C50.136 1.24213 55.0023 6.28743 55.4574 12.5193C56.3 24.0597 56.6855 33.2398 55.7102 44.9005C55.2214 50.7439 50.6002 55.3759 44.7618 55.9212C32.9941 57.0204 23.7529 56.8132 12.0646 55.8C5.97095 55.2718 1.11743 50.4415 0.643133 44.3434C-0.239688 32.993 -0.204484 23.8456 0.692391 12.1529Z" fill="#F1F1F1"/>
<g clip-path="url(#clip0_715_1991)">
<path fill-rule="evenodd" clip-rule="evenodd" d="M27.9796 43.5064C25.5105 43.5064 23.5243 43.3893 21.9653 43.2304C18.994 42.9274 16.908 40.6269 16.6641 37.6501C16.4897 35.521 16.3467 32.6015 16.3467 28.7525C16.3467 24.9035 16.4897 21.984 16.6641 19.8549C16.908 16.8781 18.994 14.5776 21.9653 14.2746C23.5243 14.1156 25.5106 13.9985 27.9796 13.9985C30.4087 13.9985 32.4272 14.1119 34.0521 14.2669C37.2965 14.5765 39.6306 17.1111 39.8832 20.3605C40.0481 22.4819 40.18 25.2678 40.18 28.7525C40.18 30.0889 40.1606 31.3226 40.1274 32.4554C37.3617 34.7849 34.0221 34.8135 32.2833 34.6253C31.7697 34.5697 31.2795 35.0877 31.3543 35.5988C31.6028 37.298 31.6343 40.5652 29.0938 43.4983C28.7325 43.5036 28.3611 43.5064 27.9796 43.5064Z" fill="#F1F1F1"/>
<path d="M22.4348 43.2762C23.9172 43.4116 25.752 43.5069 27.9797 43.5069C30.1563 43.5069 32.0032 43.4159 33.5327 43.2855C37.1013 42.981 39.6669 40.1983 39.922 36.6258C40.0683 34.5757 40.1801 31.9603 40.1801 28.753C40.1801 25.5456 40.0683 22.9302 39.922 20.8801C39.6669 17.3077 37.1013 14.5249 33.5327 14.2205C32.0032 14.09 30.1563 13.999 27.9797 13.999C25.752 13.999 23.9172 14.0944 22.4348 14.2297C19.1663 14.5283 16.8742 17.0529 16.6272 20.3257C16.47 22.408 16.3467 25.18 16.3467 28.753C16.3467 32.3259 16.47 35.098 16.6272 37.1803C16.8742 40.4531 19.1663 42.9777 22.4348 43.2762Z" fill="#F1F1F1" stroke="black" stroke-width="2" stroke-linecap="round" stroke-linejoin="round"/>
<path d="M39.8956 32.1582C36.657 35.6805 34.1758 32.2033 31.6674 34.7117C29.159 37.2202 32.6361 39.7014 28.8301 43.2236" stroke="black" stroke-width="2" stroke-linecap="round" stroke-linejoin="round"/>
<path d="M22.5879 20.8091H33.9371" stroke="black" stroke-width="2" stroke-linecap="round" stroke-linejoin="round"/>
<path d="M22.5879 26.4839H29.9649" stroke="black" stroke-width="2" stroke-linecap="round" stroke-linejoin="round"/>
</g>
<defs>
<clipPath id="clip0_715_1991">
<rect width="27" height="32" fill="white" transform="translate(14.6318 12.7778)"/>
</clipPath>
</defs>
</svg>
