<svg width="74" height="74" viewBox="0 0 74 74" fill="none" xmlns="http://www.w3.org/2000/svg">
<path d="M1.60506 16.4824C2.20354 8.6799 8.33562 2.42403 16.1328 1.76021C30.6247 0.52643 42.3147 0.574713 57.1687 1.79594C65.1754 2.45421 71.4321 8.94102 72.0172 16.9534C73.1005 31.7911 73.5962 43.594 72.3422 58.5864C71.7138 66.0993 65.7722 72.0548 58.2657 72.7559C43.1358 74.1691 31.2543 73.9028 16.2265 72.6001C8.39178 71.9209 2.15154 65.7106 1.54173 57.8702C0.406673 43.2767 0.451935 31.5158 1.60506 16.4824Z" fill="#36373A"/>
<g clip-path="url(#clip0_805_1958)">
<path d="M55.6099 49.4043H17.0859V23.9395C17.0859 23.1105 17.7326 22.4385 18.5303 22.4385H54.1655C54.9632 22.4385 55.6099 23.1105 55.6099 23.9395V49.4043Z" stroke="white" stroke-miterlimit="10"/>
<path d="M53.5059 24.7158H19.1904V47.1787H53.5059V24.7158Z" stroke="white" stroke-miterlimit="10"/>
<path d="M61.5093 49.4302V51.1123C60.3742 52.0067 57.0931 51.9575 57.0931 51.9575L15.0579 51.9751C12.0034 52.0439 11.3809 51.1123 11.3809 51.1123V49.4302H32.3735V49.7537C32.3735 50.0109 32.5742 50.2195 32.8218 50.2195H39.5952C39.8427 50.2195 40.0435 50.0109 40.0435 49.7537V49.4302H61.5093Z" stroke="white" stroke-miterlimit="10"/>
<path d="M40.043 49.4302V49.7537C40.043 50.0109 39.8423 50.2195 39.5947 50.2195H32.8213C32.5738 50.2195 32.373 50.0109 32.373 49.7537V49.4302H40.043Z" stroke="white" stroke-miterlimit="10"/>
<path d="M40.043 49.4043V49.7537C40.043 50.0109 39.8423 50.2195 39.5947 50.2195H32.8213C32.5738 50.2195 32.373 50.0109 32.373 49.7537V49.4043H40.043Z" stroke="white" stroke-miterlimit="10"/>
<path d="M36.348 23.9697C36.4615 23.9697 36.5535 23.8741 36.5535 23.7562C36.5535 23.6383 36.4615 23.5427 36.348 23.5427C36.2346 23.5427 36.1426 23.6383 36.1426 23.7562C36.1426 23.8741 36.2346 23.9697 36.348 23.9697Z" stroke="white" stroke-miterlimit="10"/>
<path d="M36.3481 23.8445C36.3985 23.8445 36.4394 23.8021 36.4394 23.7497C36.4394 23.6973 36.3985 23.6548 36.3481 23.6548C36.2977 23.6548 36.2568 23.6973 36.2568 23.7497C36.2568 23.8021 36.2977 23.8445 36.3481 23.8445Z" stroke="white" stroke-miterlimit="10"/>
</g>
<defs>
<clipPath id="clip0_805_1958">
<rect width="51" height="53" fill="white" transform="translate(10.8574 11)"/>
</clipPath>
</defs>
</svg>
