<svg width="74" height="74" viewBox="0 0 74 74" fill="none" xmlns="http://www.w3.org/2000/svg">
<path d="M1.74764 16.4824C2.34612 8.6799 8.4782 2.42403 16.2754 1.76021C30.7673 0.52643 42.4573 0.574713 57.3113 1.79594C65.3179 2.45421 71.5747 8.94102 72.1597 16.9534C73.2431 31.7911 73.7388 43.594 72.4848 58.5864C71.8564 66.0993 65.9148 72.0548 58.4083 72.7559C43.2783 74.1691 31.3968 73.9028 16.3691 72.6001C8.53435 71.9209 2.29412 65.7106 1.68431 57.8702C0.549251 43.2767 0.594513 31.5158 1.74764 16.4824Z" fill="#F1F1F1"/>
<g clip-path="url(#clip0_805_1945)">
<path d="M55.7524 49.4043H17.2285V23.9395C17.2285 23.1105 17.8752 22.4385 18.6729 22.4385H54.3081C55.1058 22.4385 55.7524 23.1105 55.7524 23.9395V49.4043Z" stroke="black" stroke-miterlimit="10"/>
<path d="M53.6484 24.7158H19.333V47.1787H53.6484V24.7158Z" stroke="black" stroke-miterlimit="10"/>
<path d="M61.6519 49.4302V51.1123C60.5168 52.0067 57.2357 51.9575 57.2357 51.9575L15.2005 51.9751C12.146 52.0439 11.5234 51.1123 11.5234 51.1123V49.4302H32.5161V49.7537C32.5161 50.0109 32.7168 50.2195 32.9644 50.2195H39.7378C39.9853 50.2195 40.186 50.0109 40.186 49.7537V49.4302H61.6519Z" stroke="black" stroke-miterlimit="10"/>
<path d="M40.1855 49.4302V49.7537C40.1855 50.0109 39.9848 50.2195 39.7373 50.2195H32.9639C32.7163 50.2195 32.5156 50.0109 32.5156 49.7537V49.4302H40.1855Z" stroke="black" stroke-miterlimit="10"/>
<path d="M40.1855 49.4043V49.7537C40.1855 50.0109 39.9848 50.2195 39.7373 50.2195H32.9639C32.7163 50.2195 32.5156 50.0109 32.5156 49.7537V49.4043H40.1855Z" stroke="black" stroke-miterlimit="10"/>
<path d="M36.4906 23.9697C36.6041 23.9697 36.696 23.8741 36.696 23.7562C36.696 23.6383 36.6041 23.5427 36.4906 23.5427C36.3771 23.5427 36.2852 23.6383 36.2852 23.7562C36.2852 23.8741 36.3771 23.9697 36.4906 23.9697Z" stroke="black" stroke-miterlimit="10"/>
<path d="M36.4907 23.8445C36.5411 23.8445 36.582 23.8021 36.582 23.7497C36.582 23.6973 36.5411 23.6548 36.4907 23.6548C36.4403 23.6548 36.3994 23.6973 36.3994 23.7497C36.3994 23.8021 36.4403 23.8445 36.4907 23.8445Z" stroke="black" stroke-miterlimit="10"/>
</g>
<defs>
<clipPath id="clip0_805_1945">
<rect width="51" height="53" fill="white" transform="translate(11 11)"/>
</clipPath>
</defs>
</svg>
