<?xml version="1.0" ?><!DOCTYPE svg  PUBLIC '-//W3C//DTD SVG 1.1//EN'  'http://www.w3.org/Graphics/SVG/1.1/DTD/svg11.dtd'><svg enable-background="new -5.5 -216 1024 1024" height="1024px" version="1.1" viewBox="-5.5 -216 1024 1024" width="1024px" xml:space="preserve" xmlns="http://www.w3.org/2000/svg" xmlns:xlink="http://www.w3.org/1999/xlink"><defs/><path d="M893.063,526h-773.5V34c0-16.016,12.984-29,29-29  h715.5c16.017,0,29,12.984,29,29V526z" fill="none" stroke="#000000" stroke-miterlimit="10" stroke-width="10"/><rect fill="none" height="434" stroke="#000000" stroke-miterlimit="10" stroke-width="10" width="689" x="161.813" y="49"/><path d="M1011.5,526.5V559l0,0  c-22.79,17.28-88.67,16.33-88.67,16.33l-844,0.34C17.5,577,5,559,5,559v-32.5h421.5v6.25c0,4.97,4.03,9,9,9h136c4.97,0,9-4.03,9-9  v-6.25H1011.5z" fill="none" stroke="#000000" stroke-miterlimit="10" stroke-width="10"/><path d="M580.5,526.5v6.25c0,4.97-4.03,9-9,9h-136  c-4.97,0-9-4.03-9-9v-6.25H580.5z" fill="none" stroke="#000000" stroke-miterlimit="10" stroke-width="10"/><path d="M580.5,526v6.75c0,4.97-4.03,9-9,9h-136  c-4.97,0-9-4.03-9-9V526H580.5z" fill="none" stroke="#000000" stroke-miterlimit="10" stroke-width="10"/><circle cx="506.313" cy="30.458" fill="none" r="4.125" stroke="#000000" stroke-miterlimit="10" stroke-width="10"/><circle cx="506.313" cy="30.333" fill="none" r="1.833" stroke="#000000" stroke-miterlimit="10" stroke-width="10"/></svg>