<svg width="74" height="74" viewBox="0 0 74 74" fill="none" xmlns="http://www.w3.org/2000/svg">
<path d="M1.60506 16.4824C2.20354 8.6799 8.33562 2.42403 16.1328 1.76021C30.6247 0.52643 42.3147 0.574713 57.1687 1.79594C65.1754 2.45421 71.4321 8.94102 72.0172 16.9534C73.1005 31.7911 73.5962 43.594 72.3422 58.5864C71.7138 66.0993 65.7722 72.0548 58.2657 72.7559C43.1358 74.1691 31.2543 73.9028 16.2265 72.6001C8.39178 71.9209 2.15154 65.7106 1.54173 57.8702C0.406673 43.2767 0.451935 31.5158 1.60506 16.4824Z" fill="#36373A"/>
<path d="M59.389 50.4731H15.3265C15.1967 50.4731 15.0721 50.4139 14.9803 50.3084C14.8885 50.2029 14.8369 50.0598 14.8369 49.9106V42.5981C14.8369 42.449 14.8885 42.3059 14.9803 42.2004C15.0721 42.0949 15.1967 42.0356 15.3265 42.0356H59.389C59.5188 42.0356 59.6434 42.0949 59.7352 42.2004C59.827 42.3059 59.8786 42.449 59.8786 42.5981V49.9106C59.8786 50.0598 59.827 50.2029 59.7352 50.3084C59.6434 50.4139 59.5188 50.4731 59.389 50.4731ZM15.8161 49.3481H58.8994V43.1606H15.8161V49.3481Z" fill="white"/>
<path d="M55.2321 43.1886C55.1023 43.1886 54.9777 43.1294 54.8859 43.0239C54.7941 42.9184 54.7425 42.7753 54.7425 42.6261C54.6348 37.4121 52.7564 32.4534 49.5087 28.8095C46.261 25.1656 41.9017 23.1257 37.3623 23.1257C32.8229 23.1257 28.4636 25.1656 25.2159 28.8095C21.9682 32.4534 20.0898 37.4121 19.9821 42.6261C19.9821 42.7753 19.9305 42.9184 19.8387 43.0239C19.7469 43.1294 19.6224 43.1886 19.4925 43.1886C19.3627 43.1886 19.2381 43.1294 19.1463 43.0239C19.0545 42.9184 19.0029 42.7753 19.0029 42.6261C19.1137 37.116 21.0966 31.8745 24.5276 28.0225C27.9586 24.1705 32.5652 22.0139 37.3623 22.0139C42.1594 22.0139 46.766 24.1705 50.197 28.0225C53.628 31.8745 55.6109 37.116 55.7217 42.6261C55.7217 42.7753 55.6701 42.9184 55.5783 43.0239C55.4865 43.1294 55.3619 43.1886 55.2321 43.1886Z" fill="white"/>
<path d="M49.4651 43.1889C49.3353 43.1889 49.2107 43.1297 49.1189 43.0242C49.0271 42.9187 48.9755 42.7756 48.9755 42.6264C48.9755 39.0863 47.7515 35.6912 45.5728 33.1879C43.394 30.6846 40.439 29.2783 37.3577 29.2783C34.2765 29.2783 31.3214 30.6846 29.1427 33.1879C26.9639 35.6912 25.7399 39.0863 25.7399 42.6264C25.7399 42.7756 25.6883 42.9187 25.5965 43.0242C25.5047 43.1297 25.3802 43.1889 25.2503 43.1889C25.1205 43.1889 24.996 43.1297 24.9041 43.0242C24.8123 42.9187 24.7607 42.7756 24.7607 42.6264C24.7607 38.7879 26.0879 35.1066 28.4503 32.3924C30.8127 29.6782 34.0168 28.1533 37.3577 28.1533C40.6986 28.1533 43.9027 29.6782 46.2651 32.3924C48.6275 35.1066 49.9547 38.7879 49.9547 42.6264C49.9547 42.7756 49.9031 42.9187 49.8113 43.0242C49.7195 43.1297 49.595 43.1889 49.4651 43.1889Z" fill="white"/>
<path d="M19.9476 50.4731C19.8177 50.4731 19.6932 50.4139 19.6014 50.3084C19.5096 50.2029 19.458 50.0598 19.458 49.9106V47.25C19.458 47.1008 19.5096 46.9577 19.6014 46.8523C19.6932 46.7468 19.8177 46.6875 19.9476 46.6875C20.0774 46.6875 20.202 46.7468 20.2938 46.8523C20.3856 46.9577 20.4372 47.1008 20.4372 47.25V49.8881C20.4398 49.9639 20.4291 50.0394 20.4057 50.1103C20.3823 50.1812 20.3466 50.2459 20.3009 50.3005C20.2552 50.3551 20.2003 50.3986 20.1396 50.4283C20.0789 50.4579 20.0136 50.4732 19.9476 50.4731Z" fill="white"/>
<path d="M24.3001 50.4731C24.1703 50.4731 24.0458 50.4138 23.9539 50.3083C23.8621 50.2028 23.8105 50.0598 23.8105 49.9106V48.2568C23.8105 48.1077 23.8621 47.9646 23.9539 47.8591C24.0458 47.7536 24.1703 47.6943 24.3001 47.6943C24.43 47.6943 24.5545 47.7536 24.6463 47.8591C24.7381 47.9646 24.7897 48.1077 24.7897 48.2568V49.9106C24.7897 50.0598 24.7381 50.2028 24.6463 50.3083C24.5545 50.4138 24.43 50.4731 24.3001 50.4731Z" fill="white"/>
<path d="M28.6527 50.4731C28.5228 50.4731 28.3983 50.4139 28.3065 50.3084C28.2147 50.2029 28.1631 50.0598 28.1631 49.9106V47.25C28.1631 47.1008 28.2147 46.9577 28.3065 46.8523C28.3983 46.7468 28.5228 46.6875 28.6527 46.6875C28.7825 46.6875 28.907 46.7468 28.9989 46.8523C29.0907 46.9577 29.1423 47.1008 29.1423 47.25V49.8881C29.1449 49.9639 29.1342 50.0394 29.1108 50.1103C29.0873 50.1812 29.0517 50.2459 29.006 50.3005C28.9602 50.3551 28.9054 50.3986 28.8447 50.4283C28.7839 50.4579 28.7186 50.4732 28.6527 50.4731Z" fill="white"/>
<path d="M33.0052 50.4731C32.8754 50.4731 32.7508 50.4138 32.659 50.3083C32.5672 50.2028 32.5156 50.0598 32.5156 49.9106V48.2568C32.5156 48.1077 32.5672 47.9646 32.659 47.8591C32.7508 47.7536 32.8754 47.6943 33.0052 47.6943C33.1351 47.6943 33.2596 47.7536 33.3514 47.8591C33.4432 47.9646 33.4948 48.1077 33.4948 48.2568V49.9106C33.4948 50.0598 33.4432 50.2028 33.3514 50.3083C33.2596 50.4138 33.1351 50.4731 33.0052 50.4731Z" fill="white"/>
<path d="M37.3577 50.4731C37.2279 50.4731 37.1034 50.4139 37.0116 50.3084C36.9197 50.2029 36.8682 50.0598 36.8682 49.9106V47.25C36.8682 47.1008 36.9197 46.9577 37.0116 46.8523C37.1034 46.7468 37.2279 46.6875 37.3577 46.6875C37.4876 46.6875 37.6121 46.7468 37.7039 46.8523C37.7957 46.9577 37.8473 47.1008 37.8473 47.25V49.8881C37.85 49.9639 37.8393 50.0394 37.8158 50.1103C37.7924 50.1812 37.7568 50.2459 37.711 50.3005C37.6653 50.3551 37.6105 50.3986 37.5497 50.4283C37.489 50.4579 37.4237 50.4732 37.3577 50.4731Z" fill="white"/>
<path d="M41.7093 50.4731C41.5795 50.4731 41.4549 50.4138 41.3631 50.3083C41.2713 50.2028 41.2197 50.0598 41.2197 49.9106V48.2568C41.2197 48.1077 41.2713 47.9646 41.3631 47.8591C41.4549 47.7536 41.5795 47.6943 41.7093 47.6943C41.8392 47.6943 41.9637 47.7536 42.0555 47.8591C42.1473 47.9646 42.1989 48.1077 42.1989 48.2568V49.9106C42.1989 50.0598 42.1473 50.2028 42.0555 50.3083C41.9637 50.4138 41.8392 50.4731 41.7093 50.4731Z" fill="white"/>
<path d="M46.0618 50.4731C45.932 50.4731 45.8075 50.4139 45.7157 50.3084C45.6238 50.2029 45.5723 50.0598 45.5723 49.9106V47.25C45.5723 47.1008 45.6238 46.9577 45.7157 46.8523C45.8075 46.7468 45.932 46.6875 46.0618 46.6875C46.1917 46.6875 46.3162 46.7468 46.408 46.8523C46.4999 46.9577 46.5514 47.1008 46.5514 47.25V49.8881C46.5541 49.9639 46.5434 50.0394 46.5199 50.1103C46.4965 50.1812 46.4609 50.2459 46.4151 50.3005C46.3694 50.3551 46.3146 50.3986 46.2538 50.4283C46.1931 50.4579 46.1278 50.4732 46.0618 50.4731Z" fill="white"/>
<path d="M50.4144 50.4731C50.2845 50.4731 50.16 50.4138 50.0682 50.3083C49.9764 50.2028 49.9248 50.0598 49.9248 49.9106V48.2568C49.9248 48.1077 49.9764 47.9646 50.0682 47.8591C50.16 47.7536 50.2845 47.6943 50.4144 47.6943C50.5442 47.6943 50.6688 47.7536 50.7606 47.8591C50.8524 47.9646 50.904 48.1077 50.904 48.2568V49.9106C50.904 50.0598 50.8524 50.2028 50.7606 50.3083C50.6688 50.4138 50.5442 50.4731 50.4144 50.4731Z" fill="white"/>
<path d="M54.7669 50.4731C54.6371 50.4731 54.5126 50.4139 54.4207 50.3084C54.3289 50.2029 54.2773 50.0598 54.2773 49.9106V47.25C54.2773 47.1008 54.3289 46.9577 54.4207 46.8523C54.5126 46.7468 54.6371 46.6875 54.7669 46.6875C54.8968 46.6875 55.0213 46.7468 55.1131 46.8523C55.2049 46.9577 55.2565 47.1008 55.2565 47.25V49.8881C55.2591 49.9639 55.2484 50.0394 55.225 50.1103C55.2016 50.1812 55.166 50.2459 55.1202 50.3005C55.0745 50.3551 55.0196 50.3986 54.9589 50.4283C54.8982 50.4579 54.8329 50.4732 54.7669 50.4731Z" fill="white"/>
<path d="M37.3577 29.2781C37.2279 29.2781 37.1034 29.2188 37.0116 29.1133C36.9197 29.0078 36.8682 28.8648 36.8682 28.7156V26.4656C36.8682 26.3164 36.9197 26.1733 37.0116 26.0678C37.1034 25.9623 37.2279 25.9031 37.3577 25.9031C37.4876 25.9031 37.6121 25.9623 37.7039 26.0678C37.7958 26.1733 37.8473 26.3164 37.8473 26.4656V28.7156C37.8473 28.8648 37.7958 29.0078 37.7039 29.1133C37.6121 29.2188 37.4876 29.2781 37.3577 29.2781Z" fill="white"/>
<path d="M33.2156 30.1162C33.115 30.1162 33.0168 30.0805 32.9345 30.0141C32.8521 29.9477 32.7896 29.8537 32.7554 29.745L32.2952 28.2881C32.2552 28.1491 32.2641 27.9976 32.3198 27.8659C32.3755 27.7342 32.4737 27.6327 32.5936 27.5829C32.7134 27.533 32.8454 27.5389 32.9616 27.5992C33.0777 27.6594 33.1689 27.7694 33.2156 27.9056L33.6758 29.3625C33.7199 29.5027 33.7137 29.6573 33.6586 29.7923C33.6036 29.9273 33.5041 30.0317 33.382 30.0825C33.3287 30.1047 33.2724 30.1162 33.2156 30.1162Z" fill="white"/>
<path d="M29.5726 32.5349C29.5015 32.5343 29.4314 32.5158 29.3672 32.4808C29.3029 32.4458 29.246 32.3952 29.2005 32.3324L27.9521 30.6449C27.9053 30.5894 27.8691 30.5234 27.8455 30.451C27.8219 30.3786 27.8116 30.3014 27.8151 30.2243C27.8187 30.1471 27.836 30.0716 27.8661 30.0025C27.8962 29.9333 27.9383 29.8721 27.9899 29.8225C28.0415 29.7729 28.1014 29.736 28.1659 29.7142C28.2305 29.6925 28.2982 29.6862 28.3649 29.6958C28.4317 29.7054 28.496 29.7307 28.5538 29.7701C28.6117 29.8096 28.6618 29.8623 28.7012 29.9249L29.9496 31.6124C30.0107 31.6945 30.05 31.7951 30.0627 31.9021C30.0754 32.0091 30.061 32.1181 30.0212 32.216C29.9815 32.3138 29.918 32.3965 29.8385 32.4541C29.7589 32.5116 29.6666 32.5417 29.5726 32.5406V32.5349Z" fill="white"/>
<path d="M26.8702 36.2364C26.784 36.2353 26.6996 36.2082 26.6254 36.1576L25.5092 35.4376C25.3962 35.363 25.3137 35.2399 25.2797 35.0954C25.2457 34.9509 25.2631 34.7968 25.328 34.667C25.393 34.5372 25.5001 34.4423 25.6259 34.4033C25.7517 34.3643 25.8858 34.3843 25.9988 34.4589L27.115 35.2014C27.2093 35.2628 27.2832 35.3584 27.3251 35.4733C27.3671 35.5881 27.3746 35.7157 27.3466 35.836C27.3186 35.9564 27.2566 36.0626 27.1704 36.1381C27.0842 36.2136 26.9786 36.2541 26.8702 36.2532V36.2364Z" fill="white"/>
<path d="M25.4309 40.7757H25.3477L23.4383 40.3932C23.375 40.3803 23.3145 40.3532 23.2603 40.3135C23.206 40.2737 23.1592 40.222 23.1224 40.1614C23.0855 40.1008 23.0595 40.0325 23.0456 39.9603C23.0318 39.8881 23.0305 39.8135 23.0418 39.7407C23.0645 39.5949 23.1364 39.4653 23.2418 39.38C23.3472 39.2947 23.4776 39.2606 23.6048 39.2851L25.5191 39.6676C25.6489 39.681 25.7688 39.7532 25.8523 39.8682C25.9359 39.9831 25.9763 40.1316 25.9646 40.2807C25.9529 40.4299 25.8901 40.5677 25.79 40.6637C25.6899 40.7597 25.5608 40.806 25.4309 40.7926V40.7757Z" fill="white"/>
<path d="M41.4991 30.1161C41.4423 30.116 41.386 30.1046 41.3326 30.0824C41.2106 30.0316 41.1111 29.9272 41.0561 29.7922C41.001 29.6572 40.9948 29.5026 41.0389 29.3624L41.4991 27.9055C41.5196 27.8341 41.5524 27.7681 41.5955 27.7115C41.6386 27.6549 41.6911 27.6088 41.75 27.5759C41.8088 27.543 41.8729 27.524 41.9382 27.5201C42.0036 27.5161 42.069 27.5272 42.1305 27.5528C42.1921 27.5784 42.2486 27.6179 42.2966 27.669C42.3446 27.7201 42.3833 27.7817 42.4102 27.8503C42.4372 27.9188 42.4519 27.9929 42.4535 28.0681C42.4551 28.1432 42.4435 28.218 42.4195 28.288L41.9593 29.7449C41.9251 29.8536 41.8626 29.9476 41.7802 30.014C41.6979 30.0804 41.5997 30.1161 41.4991 30.1161Z" fill="white"/>
<path d="M45.142 32.5352C45.048 32.5363 44.9557 32.5063 44.8761 32.4487C44.7966 32.3911 44.7331 32.3085 44.6934 32.2106C44.6536 32.1127 44.6392 32.0038 44.6519 31.8967C44.6647 31.7897 44.7039 31.6891 44.765 31.6071L46.0135 29.9196C46.0528 29.8569 46.1029 29.8042 46.1608 29.7648C46.2186 29.7253 46.2829 29.7 46.3497 29.6904C46.4164 29.6808 46.4842 29.6871 46.5487 29.7089C46.6132 29.7307 46.6731 29.7675 46.7247 29.8171C46.7763 29.8667 46.8185 29.928 46.8485 29.9971C46.8786 30.0662 46.8959 30.1417 46.8995 30.2189C46.903 30.2961 46.8927 30.3732 46.8691 30.4456C46.8456 30.518 46.8093 30.584 46.7625 30.6396L45.5141 32.3271C45.469 32.3909 45.4124 32.4426 45.3481 32.4785C45.2838 32.5145 45.2135 32.5338 45.142 32.5352Z" fill="white"/>
<path d="M47.8446 36.2361C47.7362 36.237 47.6306 36.1965 47.5444 36.121C47.4581 36.0455 47.3962 35.9393 47.3682 35.8189C47.3402 35.6986 47.3477 35.571 47.3896 35.4562C47.4316 35.3413 47.5055 35.2457 47.5998 35.1843L48.716 34.4418C48.829 34.3672 48.9631 34.3472 49.0889 34.3862C49.2147 34.4253 49.3218 34.5201 49.3868 34.6499C49.4517 34.7797 49.4691 34.9338 49.4351 35.0783C49.4011 35.2228 49.3186 35.3459 49.2056 35.4205L48.0894 36.1574C48.0152 36.2079 47.9308 36.2351 47.8446 36.2361Z" fill="white"/>
<path d="M49.2837 40.7755C49.1538 40.789 49.0247 40.7426 48.9246 40.6466C48.8245 40.5506 48.7617 40.4128 48.75 40.2637C48.7383 40.1145 48.7787 39.9661 48.8623 39.8511C48.9458 39.7361 49.0657 39.664 49.1955 39.6505L51.1098 39.268C51.237 39.2435 51.3674 39.2776 51.4728 39.3629C51.5783 39.4482 51.6501 39.5778 51.6728 39.7237C51.6841 39.7964 51.6828 39.871 51.669 39.9432C51.6552 40.0154 51.6291 40.0837 51.5922 40.1443C51.5554 40.2049 51.5086 40.2566 51.4543 40.2964C51.4001 40.3361 51.3396 40.3633 51.2763 40.3762L49.3669 40.7587L49.2837 40.7755Z" fill="white"/>
</svg>
