<svg width="74" height="74" viewBox="0 0 74 74" fill="none" xmlns="http://www.w3.org/2000/svg">
<path d="M1.74764 16.4824C2.34612 8.6799 8.4782 2.42403 16.2754 1.76021C30.7673 0.52643 42.4573 0.574713 57.3113 1.79594C65.3179 2.45421 71.5747 8.94102 72.1597 16.9534C73.2431 31.7911 73.7388 43.594 72.4848 58.5864C71.8564 66.0993 65.9148 72.0548 58.4083 72.7559C43.2783 74.1691 31.3968 73.9028 16.3691 72.6001C8.53435 71.9209 2.29412 65.7106 1.68431 57.8702C0.549251 43.2767 0.594513 31.5158 1.74764 16.4824Z" fill="#F1F1F1"/>
<path d="M59.5316 48.4731H15.4691C15.3392 48.4731 15.2147 48.4139 15.1229 48.3084C15.0311 48.2029 14.9795 48.0598 14.9795 47.9106V40.5981C14.9795 40.449 15.0311 40.3059 15.1229 40.2004C15.2147 40.0949 15.3392 40.0356 15.4691 40.0356H59.5316C59.6614 40.0356 59.786 40.0949 59.8778 40.2004C59.9696 40.3059 60.0212 40.449 60.0212 40.5981V47.9106C60.0212 48.0598 59.9696 48.2029 59.8778 48.3084C59.786 48.4139 59.6614 48.4731 59.5316 48.4731ZM15.9587 47.3481H59.042V41.1606H15.9587V47.3481Z" fill="black"/>
<path d="M55.3747 41.1886C55.2448 41.1886 55.1203 41.1294 55.0285 41.0239C54.9367 40.9184 54.8851 40.7753 54.8851 40.6261C54.7774 35.4121 52.899 30.4534 49.6513 26.8095C46.4036 23.1656 42.0443 21.1257 37.5049 21.1257C32.9655 21.1257 28.6062 23.1656 25.3585 26.8095C22.1108 30.4534 20.2324 35.4121 20.1247 40.6261C20.1247 40.7753 20.0731 40.9184 19.9813 41.0239C19.8895 41.1294 19.7649 41.1886 19.6351 41.1886C19.5052 41.1886 19.3807 41.1294 19.2889 41.0239C19.1971 40.9184 19.1455 40.7753 19.1455 40.6261C19.2563 35.116 21.2392 29.8745 24.6702 26.0225C28.1012 22.1705 32.7078 20.0139 37.5049 20.0139C42.302 20.0139 46.9086 22.1705 50.3396 26.0225C53.7706 29.8745 55.7535 35.116 55.8643 40.6261C55.8643 40.7753 55.8127 40.9184 55.7209 41.0239C55.629 41.1294 55.5045 41.1886 55.3747 41.1886Z" fill="black"/>
<path d="M49.6077 41.1887C49.4779 41.1887 49.3533 41.1294 49.2615 41.0239C49.1697 40.9185 49.1181 40.7754 49.1181 40.6262C49.1181 37.0861 47.8941 33.6909 45.7153 31.1877C43.5366 28.6844 40.5815 27.2781 37.5003 27.2781C34.4191 27.2781 31.464 28.6844 29.2853 31.1877C27.1065 33.6909 25.8825 37.0861 25.8825 40.6262C25.8825 40.7754 25.8309 40.9185 25.7391 41.0239C25.6473 41.1294 25.5227 41.1887 25.3929 41.1887C25.2631 41.1887 25.1385 41.1294 25.0467 41.0239C24.9549 40.9185 24.9033 40.7754 24.9033 40.6262C24.9033 36.7877 26.2305 33.1064 28.5929 30.3922C30.9553 27.6779 34.1594 26.1531 37.5003 26.1531C40.8412 26.1531 44.0453 27.6779 46.4077 30.3922C48.7701 33.1064 50.0973 36.7877 50.0973 40.6262C50.0973 40.7754 50.0457 40.9185 49.9539 41.0239C49.8621 41.1294 49.7375 41.1887 49.6077 41.1887Z" fill="black"/>
<path d="M20.0902 48.4731C19.9603 48.4731 19.8358 48.4139 19.744 48.3084C19.6522 48.2029 19.6006 48.0598 19.6006 47.9106V45.25C19.6006 45.1008 19.6522 44.9577 19.744 44.8523C19.8358 44.7468 19.9603 44.6875 20.0902 44.6875C20.22 44.6875 20.3445 44.7468 20.4364 44.8523C20.5282 44.9577 20.5798 45.1008 20.5798 45.25V47.8881C20.5824 47.9639 20.5717 48.0394 20.5483 48.1103C20.5248 48.1812 20.4892 48.2459 20.4435 48.3005C20.3977 48.3551 20.3429 48.3986 20.2822 48.4283C20.2214 48.4579 20.1561 48.4732 20.0902 48.4731Z" fill="black"/>
<path d="M24.4427 48.4731C24.3129 48.4731 24.1883 48.4138 24.0965 48.3083C24.0047 48.2028 23.9531 48.0598 23.9531 47.9106V46.2568C23.9531 46.1077 24.0047 45.9646 24.0965 45.8591C24.1883 45.7536 24.3129 45.6943 24.4427 45.6943C24.5726 45.6943 24.6971 45.7536 24.7889 45.8591C24.8807 45.9646 24.9323 46.1077 24.9323 46.2568V47.9106C24.9323 48.0598 24.8807 48.2028 24.7889 48.3083C24.6971 48.4138 24.5726 48.4731 24.4427 48.4731Z" fill="black"/>
<path d="M28.7952 48.4731C28.6654 48.4731 28.5409 48.4139 28.4491 48.3084C28.3572 48.2029 28.3057 48.0598 28.3057 47.9106V45.25C28.3057 45.1008 28.3572 44.9577 28.4491 44.8523C28.5409 44.7468 28.6654 44.6875 28.7952 44.6875C28.9251 44.6875 29.0496 44.7468 29.1414 44.8523C29.2332 44.9577 29.2848 45.1008 29.2848 45.25V47.8881C29.2875 47.9639 29.2768 48.0394 29.2533 48.1103C29.2299 48.1812 29.1943 48.2459 29.1485 48.3005C29.1028 48.3551 29.048 48.3986 28.9872 48.4283C28.9265 48.4579 28.8612 48.4732 28.7952 48.4731Z" fill="black"/>
<path d="M33.1478 48.4731C33.0179 48.4731 32.8934 48.4138 32.8016 48.3083C32.7098 48.2028 32.6582 48.0598 32.6582 47.9106V46.2568C32.6582 46.1077 32.7098 45.9646 32.8016 45.8591C32.8934 45.7536 33.0179 45.6943 33.1478 45.6943C33.2776 45.6943 33.4022 45.7536 33.494 45.8591C33.5858 45.9646 33.6374 46.1077 33.6374 46.2568V47.9106C33.6374 48.0598 33.5858 48.2028 33.494 48.3083C33.4022 48.4138 33.2776 48.4731 33.1478 48.4731Z" fill="black"/>
<path d="M37.5003 48.4731C37.3705 48.4731 37.246 48.4139 37.1541 48.3084C37.0623 48.2029 37.0107 48.0598 37.0107 47.9106V45.25C37.0107 45.1008 37.0623 44.9577 37.1541 44.8523C37.246 44.7468 37.3705 44.6875 37.5003 44.6875C37.6302 44.6875 37.7547 44.7468 37.8465 44.8523C37.9383 44.9577 37.9899 45.1008 37.9899 45.25V47.8881C37.9925 47.9639 37.9818 48.0394 37.9584 48.1103C37.935 48.1812 37.8994 48.2459 37.8536 48.3005C37.8079 48.3551 37.753 48.3986 37.6923 48.4283C37.6316 48.4579 37.5663 48.4732 37.5003 48.4731Z" fill="black"/>
<path d="M41.8519 48.4731C41.722 48.4731 41.5975 48.4138 41.5057 48.3083C41.4139 48.2028 41.3623 48.0598 41.3623 47.9106V46.2568C41.3623 46.1077 41.4139 45.9646 41.5057 45.8591C41.5975 45.7536 41.722 45.6943 41.8519 45.6943C41.9817 45.6943 42.1063 45.7536 42.1981 45.8591C42.2899 45.9646 42.3415 46.1077 42.3415 46.2568V47.9106C42.3415 48.0598 42.2899 48.2028 42.1981 48.3083C42.1063 48.4138 41.9817 48.4731 41.8519 48.4731Z" fill="black"/>
<path d="M46.2044 48.4731C46.0746 48.4731 45.9501 48.4139 45.8582 48.3084C45.7664 48.2029 45.7148 48.0598 45.7148 47.9106V45.25C45.7148 45.1008 45.7664 44.9577 45.8582 44.8523C45.9501 44.7468 46.0746 44.6875 46.2044 44.6875C46.3343 44.6875 46.4588 44.7468 46.5506 44.8523C46.6424 44.9577 46.694 45.1008 46.694 45.25V47.8881C46.6966 47.9639 46.6859 48.0394 46.6625 48.1103C46.6391 48.1812 46.6035 48.2459 46.5577 48.3005C46.512 48.3551 46.4571 48.3986 46.3964 48.4283C46.3357 48.4579 46.2704 48.4732 46.2044 48.4731Z" fill="black"/>
<path d="M50.557 48.4731C50.4271 48.4731 50.3026 48.4138 50.2108 48.3083C50.119 48.2028 50.0674 48.0598 50.0674 47.9106V46.2568C50.0674 46.1077 50.119 45.9646 50.2108 45.8591C50.3026 45.7536 50.4271 45.6943 50.557 45.6943C50.6868 45.6943 50.8113 45.7536 50.9032 45.8591C50.995 45.9646 51.0465 46.1077 51.0465 46.2568V47.9106C51.0465 48.0598 50.995 48.2028 50.9032 48.3083C50.8113 48.4138 50.6868 48.4731 50.557 48.4731Z" fill="black"/>
<path d="M54.9095 48.4731C54.7797 48.4731 54.6551 48.4139 54.5633 48.3084C54.4715 48.2029 54.4199 48.0598 54.4199 47.9106V45.25C54.4199 45.1008 54.4715 44.9577 54.5633 44.8523C54.6551 44.7468 54.7797 44.6875 54.9095 44.6875C55.0394 44.6875 55.1639 44.7468 55.2557 44.8523C55.3475 44.9577 55.3991 45.1008 55.3991 45.25V47.8881C55.4017 47.9639 55.391 48.0394 55.3676 48.1103C55.3442 48.1812 55.3085 48.2459 55.2628 48.3005C55.2171 48.3551 55.1622 48.3986 55.1015 48.4283C55.0408 48.4579 54.9755 48.4732 54.9095 48.4731Z" fill="black"/>
<path d="M37.5003 27.2781C37.3705 27.2781 37.246 27.2188 37.1541 27.1133C37.0623 27.0078 37.0107 26.8648 37.0107 26.7156V24.4656C37.0107 24.3164 37.0623 24.1733 37.1541 24.0678C37.246 23.9623 37.3705 23.9031 37.5003 23.9031C37.6302 23.9031 37.7547 23.9623 37.8465 24.0678C37.9383 24.1733 37.9899 24.3164 37.9899 24.4656V26.7156C37.9899 26.8648 37.9383 27.0078 37.8465 27.1133C37.7547 27.2188 37.6302 27.2781 37.5003 27.2781Z" fill="black"/>
<path d="M33.3582 28.1162C33.2576 28.1162 33.1594 28.0805 33.077 28.0141C32.9947 27.9477 32.9322 27.8537 32.898 27.745L32.4378 26.2881C32.3978 26.1491 32.4066 25.9976 32.4624 25.8659C32.5181 25.7342 32.6163 25.6327 32.7361 25.5829C32.856 25.533 32.988 25.5389 33.1042 25.5992C33.2203 25.6594 33.3114 25.7694 33.3582 25.9056L33.8184 27.3625C33.8625 27.5027 33.8563 27.6573 33.8012 27.7923C33.7461 27.9273 33.6466 28.0317 33.5246 28.0825C33.4713 28.1047 33.4149 28.1162 33.3582 28.1162Z" fill="black"/>
<path d="M29.7152 30.5349C29.6441 30.5343 29.574 30.5158 29.5097 30.4808C29.4455 30.4458 29.3886 30.3952 29.3431 30.3324L28.0947 28.6449C28.0479 28.5894 28.0116 28.5234 27.9881 28.451C27.9645 28.3786 27.9542 28.3014 27.9577 28.2243C27.9613 28.1471 27.9786 28.0716 28.0087 28.0025C28.0387 27.9333 28.0809 27.8721 28.1325 27.8225C28.1841 27.7729 28.244 27.736 28.3085 27.7142C28.373 27.6925 28.4408 27.6862 28.5075 27.6958C28.5743 27.7054 28.6386 27.7307 28.6964 27.7701C28.7543 27.8096 28.8044 27.8623 28.8437 27.9249L30.0922 29.6124C30.1533 29.6945 30.1925 29.7951 30.2052 29.9021C30.2179 30.0091 30.2036 30.1181 30.1638 30.216C30.124 30.3138 30.0606 30.3965 29.9811 30.4541C29.9015 30.5116 29.8092 30.5417 29.7152 30.5406V30.5349Z" fill="black"/>
<path d="M27.0128 34.2364C26.9266 34.2353 26.8421 34.2082 26.768 34.1576L25.6518 33.4376C25.5388 33.363 25.4562 33.2399 25.4223 33.0954C25.3883 32.9509 25.4057 32.7968 25.4706 32.667C25.5355 32.5372 25.6427 32.4423 25.7685 32.4033C25.8942 32.3643 26.0284 32.3843 26.1413 32.4589L27.2576 33.2014C27.3519 33.2628 27.4258 33.3584 27.4677 33.4733C27.5096 33.5881 27.5172 33.7157 27.4892 33.836C27.4612 33.9564 27.3992 34.0626 27.313 34.1381C27.2268 34.2136 27.1212 34.2541 27.0128 34.2532V34.2364Z" fill="black"/>
<path d="M25.5735 38.7757H25.4903L23.5809 38.3932C23.5176 38.3803 23.4571 38.3532 23.4028 38.3135C23.3486 38.2737 23.3018 38.222 23.2649 38.1614C23.2281 38.1008 23.202 38.0325 23.1882 37.9603C23.1744 37.8881 23.1731 37.8135 23.1843 37.7407C23.2071 37.5949 23.2789 37.4653 23.3843 37.38C23.4898 37.2947 23.6202 37.2606 23.7474 37.2851L25.6616 37.6676C25.7915 37.681 25.9114 37.7532 25.9949 37.8682C26.0785 37.9831 26.1188 38.1316 26.1072 38.2807C26.0955 38.4299 26.0327 38.5677 25.9326 38.6637C25.8325 38.7597 25.7034 38.806 25.5735 38.7926V38.7757Z" fill="black"/>
<path d="M41.6417 28.1161C41.5849 28.116 41.5286 28.1046 41.4752 28.0824C41.3532 28.0316 41.2537 27.9272 41.1986 27.7922C41.1435 27.6572 41.1374 27.5026 41.1815 27.3624L41.6417 25.9055C41.6622 25.8341 41.695 25.7681 41.7381 25.7115C41.7811 25.6549 41.8337 25.6088 41.8926 25.5759C41.9514 25.543 42.0154 25.524 42.0808 25.5201C42.1462 25.5161 42.2116 25.5272 42.2731 25.5528C42.3347 25.5784 42.3911 25.6179 42.4392 25.669C42.4872 25.7201 42.5258 25.7817 42.5528 25.8503C42.5797 25.9188 42.5944 25.9929 42.596 26.0681C42.5976 26.1432 42.5861 26.218 42.5621 26.288L42.1019 27.7449C42.0677 27.8536 42.0051 27.9476 41.9228 28.014C41.8405 28.0804 41.7423 28.1161 41.6417 28.1161Z" fill="black"/>
<path d="M45.2846 30.535C45.1906 30.536 45.0983 30.506 45.0187 30.4485C44.9392 30.3909 44.8757 30.3082 44.836 30.2104C44.7962 30.1125 44.7818 30.0035 44.7945 29.8965C44.8072 29.7895 44.8465 29.6889 44.9076 29.6068L46.156 27.9193C46.1954 27.8566 46.2455 27.8039 46.3034 27.7645C46.3612 27.7251 46.4255 27.6998 46.4922 27.6902C46.559 27.6805 46.6267 27.6868 46.6913 27.7086C46.7558 27.7304 46.8157 27.7673 46.8673 27.8169C46.9189 27.8664 46.961 27.9277 46.9911 27.9968C47.0212 28.066 47.0385 28.1415 47.0421 28.2186C47.0456 28.2958 47.0353 28.373 47.0117 28.4454C46.9881 28.5178 46.9519 28.5838 46.9051 28.6393L45.6567 30.3268C45.6116 30.3906 45.555 30.4423 45.4907 30.4783C45.4264 30.5142 45.3561 30.5336 45.2846 30.535Z" fill="black"/>
<path d="M47.9871 34.2361C47.8787 34.237 47.7732 34.1965 47.6869 34.121C47.6007 34.0455 47.5388 33.9393 47.5108 33.8189C47.4828 33.6986 47.4903 33.571 47.5322 33.4562C47.5741 33.3413 47.648 33.2457 47.7424 33.1843L48.8586 32.4418C48.9716 32.3672 49.1057 32.3472 49.2315 32.3862C49.3573 32.4253 49.4644 32.5201 49.5293 32.6499C49.5943 32.7797 49.6116 32.9338 49.5777 33.0783C49.5437 33.2228 49.4612 33.3459 49.3482 33.4205L48.2319 34.1574C48.1578 34.2079 48.0734 34.2351 47.9871 34.2361Z" fill="black"/>
<path d="M49.4263 38.7755C49.2964 38.789 49.1672 38.7426 49.0672 38.6466C48.9671 38.5506 48.9043 38.4128 48.8926 38.2637C48.8809 38.1145 48.9213 37.9661 49.0048 37.8511C49.0884 37.7361 49.2083 37.664 49.3381 37.6505L51.2524 37.268C51.3796 37.2435 51.51 37.2776 51.6154 37.3629C51.7208 37.4482 51.7927 37.5778 51.8154 37.7237C51.8267 37.7964 51.8254 37.871 51.8116 37.9432C51.7977 38.0154 51.7717 38.0837 51.7348 38.1443C51.698 38.2049 51.6511 38.2566 51.5969 38.2964C51.5427 38.3361 51.4822 38.3633 51.4189 38.3762L49.5095 38.7587L49.4263 38.7755Z" fill="black"/>
</svg>
