<svg width="50" height="50" viewBox="0 0 50 50" fill="none" xmlns="http://www.w3.org/2000/svg">
<path d="M12.5 16.6666L12.5 33.3333H29.1667V16.6666H12.5Z" fill="white"/>
<path d="M3.125 17.7084V32.2917L8.33333 33.3334L13.5417 32.2917V17.7084L8.33333 16.6667L3.125 17.7084Z" fill="#1E88E5"/>
<path d="M38.5417 24.9999V39.5833C38.5417 41.3093 37.1427 42.7083 35.4167 42.7083H13.5417L12.5 37.4999L13.5417 32.2916H28.125V24.9999L33.3333 23.9583L38.5417 24.9999Z" fill="#4CAF50"/>
<path d="M38.5417 10.4167V25.0001H28.125V17.7084H13.5417L12.5 12.5001L13.5417 7.29175H35.4167C37.1427 7.29175 38.5417 8.69071 38.5417 10.4167Z" fill="#FBC02D"/>
<path d="M13.5417 32.2917V42.7084H6.25C4.52396 42.7084 3.125 41.3095 3.125 39.5834V32.2917H13.5417Z" fill="#1565C0"/>
<path d="M13.5417 7.29175V17.7084H3.125L13.5417 7.29175Z" fill="#E53935"/>
<path d="M39.5833 25.0001L38.5417 33.8022L28.125 25.0001L38.5417 16.198L39.5833 25.0001Z" fill="#2E7D32"/>
<path d="M47.9165 10.5314V39.4689C47.9165 40.3439 46.8957 40.8334 46.2186 40.2814L38.5415 33.8022V16.198L46.2186 9.71887C46.8957 9.16678 47.9165 9.65637 47.9165 10.5314Z" fill="#4CAF50"/>
</svg>
