<svg width="57" height="57" viewBox="0 0 57 57" fill="none" xmlns="http://www.w3.org/2000/svg">
<path d="M0.692391 12.1529C1.15788 6.08435 5.92727 1.21866 11.9917 0.702358C23.2632 -0.257248 32.3554 -0.219695 43.9085 0.730146C50.136 1.24213 55.0023 6.28743 55.4574 12.5193C56.3 24.0597 56.6855 33.2398 55.7102 44.9005C55.2214 50.7439 50.6002 55.3759 44.7618 55.9212C32.9941 57.0204 23.7529 56.8132 12.0646 55.8C5.97095 55.2718 1.11743 50.4415 0.643133 44.3434C-0.239688 32.993 -0.204484 23.8456 0.692391 12.1529Z" fill="#F1F1F1"/>
<g clip-path="url(#clip0_712_643)">
<path d="M42.6027 27.8506C42.6027 31.1695 42.458 33.8545 42.2719 35.9353C41.9621 39.4007 39.4018 41.9976 35.9353 42.2956C33.8943 42.4711 31.2302 42.6046 27.8487 42.6046C24.4671 42.6046 21.8031 42.4711 19.7621 42.2956C16.2956 41.9976 13.7353 39.4007 13.4254 35.9353C13.2394 33.8545 13.0947 31.1695 13.0947 27.8506C13.0947 24.6599 13.2285 22.055 13.4041 20.0097C13.7129 16.4138 16.4119 13.7148 20.0078 13.406C22.0531 13.2304 24.658 13.0967 27.8487 13.0967" stroke="black" stroke-width="2" stroke-linecap="round" stroke-linejoin="round"/>
<path d="M21.8252 27.5406C25.3925 29.9489 26.9207 32.0858 26.9207 32.0858C26.9207 32.0858 28.4584 28.5851 31.4076 24.7252C34.5842 20.5676 36.9388 19.0017 36.9388 19.0017" stroke="black" stroke-width="2" stroke-linecap="round" stroke-linejoin="round"/>
</g>
<defs>
<clipPath id="clip0_712_643">
<rect width="32" height="32" fill="white" transform="translate(12 12)"/>
</clipPath>
</defs>
</svg>
