<svg width="57" height="57" viewBox="0 0 57 57" fill="none" xmlns="http://www.w3.org/2000/svg">
<path d="M0.692391 12.1529C1.15788 6.08435 5.92727 1.21866 11.9917 0.702358C23.2632 -0.257248 32.3554 -0.219695 43.9085 0.730146C50.136 1.24213 55.0023 6.28743 55.4574 12.5193C56.3 24.0597 56.6855 33.2398 55.7102 44.9005C55.2214 50.7439 50.6002 55.3759 44.7618 55.9212C32.9941 57.0204 23.7529 56.8132 12.0646 55.8C5.97095 55.2718 1.11743 50.4415 0.643133 44.3434C-0.239688 32.993 -0.204484 23.8456 0.692391 12.1529Z" fill="#36373A"/>
<g clip-path="url(#clip0_715_2011)">
<path d="M42.6027 28.8506C42.6027 32.1695 42.458 34.8545 42.2719 36.9353C41.9621 40.4007 39.4018 42.9976 35.9353 43.2956C33.8943 43.4711 31.2302 43.6046 27.8487 43.6046C24.4671 43.6046 21.8031 43.4711 19.7621 43.2956C16.2956 42.9976 13.7353 40.4007 13.4254 36.9353C13.2394 34.8545 13.0947 32.1695 13.0947 28.8506C13.0947 25.6599 13.2285 23.055 13.4041 21.0097C13.7129 17.4138 16.4119 14.7148 20.0078 14.406C22.0531 14.2304 24.658 14.0967 27.8487 14.0967" stroke="white" stroke-width="2" stroke-linecap="round" stroke-linejoin="round"/>
<path d="M21.8252 28.5406C25.3925 30.9489 26.9207 33.0858 26.9207 33.0858C26.9207 33.0858 28.4584 29.5851 31.4076 25.7252C34.5842 21.5676 36.9388 20.0017 36.9388 20.0017" stroke="white" stroke-width="2" stroke-linecap="round" stroke-linejoin="round"/>
</g>
<defs>
<clipPath id="clip0_715_2011">
<rect width="32" height="32" fill="white" transform="translate(12 13)"/>
</clipPath>
</defs>
</svg>
