<svg id="Layer_1" data-name="Layer 1" xmlns="http://www.w3.org/2000/svg" viewBox="0 0 96 96"><path d="M93,73.73H3a1,1,0,0,1-1-1v-13a1,1,0,0,1,1-1H93a1,1,0,0,1,1,1v13A1,1,0,0,1,93,73.73Zm-89-2H92v-11H4Z"/><path d="M84.51,60.78a1,1,0,0,1-1-1,35.51,35.51,0,0,0-71,0,1,1,0,0,1-2,0,37.51,37.51,0,0,1,75,0A1,1,0,0,1,84.51,60.78Z"/><path d="M72.73,60.78a1,1,0,0,1-1-1,23.73,23.73,0,0,0-47.46,0,1,1,0,0,1-2,0,25.73,25.73,0,0,1,51.46,0A1,1,0,0,1,72.73,60.78Z"/><path d="M12.44,73.73a1,1,0,0,1-1-1V68a1,1,0,0,1,2,0v4.69A1,1,0,0,1,12.44,73.73Z"/><path d="M21.33,73.73a1,1,0,0,1-1-1V69.79a1,1,0,0,1,2,0v2.94A1,1,0,0,1,21.33,73.73Z"/><path d="M30.22,73.73a1,1,0,0,1-1-1V68a1,1,0,0,1,2,0v4.69A1,1,0,0,1,30.22,73.73Z"/><path d="M39.11,73.73a1,1,0,0,1-1-1V69.79a1,1,0,0,1,2,0v2.94A1,1,0,0,1,39.11,73.73Z"/><path d="M48,73.73a1,1,0,0,1-1-1V68a1,1,0,0,1,2,0v4.69A1,1,0,0,1,48,73.73Z"/><path d="M56.89,73.73a1,1,0,0,1-1-1V69.79a1,1,0,0,1,2,0v2.94A1,1,0,0,1,56.89,73.73Z"/><path d="M65.78,73.73a1,1,0,0,1-1-1V68a1,1,0,1,1,2,0v4.69A1,1,0,0,1,65.78,73.73Z"/><path d="M74.67,73.73a1,1,0,0,1-1-1V69.79a1,1,0,0,1,2,0v2.94A1,1,0,0,1,74.67,73.73Z"/><path d="M83.56,73.73a1,1,0,0,1-1-1V68a1,1,0,0,1,2,0v4.69A1,1,0,0,1,83.56,73.73Z"/><path d="M48,36.05a1,1,0,0,1-1-1v-4a1,1,0,0,1,2,0v4A1,1,0,0,1,48,36.05Z"/><path d="M39.54,37.54a1,1,0,0,1-.94-.66l-.94-2.59a1,1,0,0,1,1.88-.68l.94,2.59a1,1,0,0,1-.6,1.28A1,1,0,0,1,39.54,37.54Z"/><path d="M32.1,41.84a1,1,0,0,1-.76-.36l-2.55-3a1,1,0,1,1,1.53-1.28l2.55,3a1,1,0,0,1-.77,1.65Z"/><path d="M26.58,48.42a1,1,0,0,1-.5-.14L23.8,47a1,1,0,1,1,1-1.74l2.28,1.32a1,1,0,0,1-.5,1.87Z"/><path d="M23.64,56.49l-.17,0-3.9-.68a1,1,0,0,1-.81-1.16,1,1,0,0,1,1.15-.81l3.91.68a1,1,0,0,1-.18,2Z"/><path d="M56.46,37.54a1,1,0,0,1-.34-.06,1,1,0,0,1-.6-1.28l.94-2.59a1,1,0,1,1,1.88.68l-.94,2.59A1,1,0,0,1,56.46,37.54Z"/><path d="M63.9,41.84a1,1,0,0,1-.77-1.65l2.55-3a1,1,0,1,1,1.53,1.28l-2.55,3A1,1,0,0,1,63.9,41.84Z"/><path d="M69.42,48.42a1,1,0,0,1-.5-1.87l2.28-1.32a1,1,0,0,1,1,1.74l-2.28,1.31A1,1,0,0,1,69.42,48.42Z"/><path d="M72.36,56.49a1,1,0,0,1-.18-2l3.91-.68a1,1,0,0,1,1.15.81,1,1,0,0,1-.81,1.16l-3.9.68Z"/></svg>