<svg width="57" height="57" viewBox="0 0 57 57" fill="none" xmlns="http://www.w3.org/2000/svg">
<path d="M0.692391 12.1529C1.15788 6.08435 5.92727 1.21866 11.9917 0.702358C23.2632 -0.257248 32.3554 -0.219695 43.9085 0.730146C50.136 1.24213 55.0023 6.28743 55.4574 12.5193C56.3 24.0597 56.6855 33.2398 55.7102 44.9005C55.2214 50.7439 50.6002 55.3759 44.7618 55.9212C32.9941 57.0204 23.7529 56.8132 12.0646 55.8C5.97095 55.2718 1.11743 50.4415 0.643133 44.3434C-0.239688 32.993 -0.204484 23.8456 0.692391 12.1529Z" fill="#36373A"/>
<g clip-path="url(#clip0_712_1979)">
<path d="M41.1888 17.5882L37.4118 13.8113C36.8898 13.2886 36.196 13.0007 35.4575 13.0007C34.719 13.0007 34.0252 13.288 33.5031 13.8107L15.7951 31.5741L13 41.9995L23.4988 39.1875L41.1875 21.4975C41.7107 20.9749 42 20.281 42 19.5426C42 18.8042 41.7107 18.1103 41.1888 17.5882ZM17.2444 31.8979L30.641 18.4496L36.5524 24.3597L23.1292 37.7827L17.2444 31.8979ZM16.6822 33.1106L21.892 38.3198L17.7525 39.4278L15.5723 37.2476L16.6822 33.1106ZM40.3003 20.6098L38.3974 22.5139L32.4836 16.6038L34.3915 14.6978C34.96 14.1269 35.955 14.1275 36.5246 14.6978L40.3016 18.4753C40.587 18.7602 40.7452 19.1391 40.7452 19.5419C40.7452 19.9448 40.587 20.3243 40.3003 20.6098Z" fill="white"/>
</g>
<defs>
<clipPath id="clip0_712_1979">
<rect width="29" height="29" fill="white" transform="translate(13 13)"/>
</clipPath>
</defs>
</svg>
